<svg xmlns="http://www.w3.org/2000/svg" version="1.1" xmlns:xlink="http://www.w3.org/1999/xlink" xmlns:svgjs="http://svgjs.dev/svgjs" width="1500" height="522" viewBox="0 0 1500 522"><g transform="matrix(1,0,0,1,-0.9084522071641459,0.5338903258647747)"><svg viewBox="0 0 396 138" data-background-color="#ffffff" preserveAspectRatio="xMidYMid meet" height="522" width="1500" xmlns="http://www.w3.org/2000/svg" xmlns:xlink="http://www.w3.org/1999/xlink"><g id="tight-bounds" transform="matrix(1,0,0,1,0.24008861730862918,-0.14114341948149445)"><svg viewBox="0 0 395.52 138.2822078507933" height="138.2822078507933" width="395.52"><g><svg viewBox="0 0 395.52 138.2822078507933" height="138.2822078507933" width="395.52"><g><svg viewBox="0 0 395.52 138.2822078507933" height="138.2822078507933" width="395.52"><g id="textblocktransform"><svg viewBox="0 0 395.52 138.2822078507933" height="138.2822078507933" width="395.52" id="textblock"><g><svg viewBox="0 0 395.52 138.2822078507933" height="138.2822078507933" width="395.52"><path d="M394.594 29.659C392.735 15.305 387.435 11.315 387.435 11.315 371.165-3.469 350.86-0.283 332.619 1.842 300.414 1.928 268.339 5.085 236.208 6.779 168.767 7.038 100.749 2.789 33.643 13.267 27.339 16.482-6.54 13.899 1.121 31.496 3.129 38.817 10.456 46.941 10.232 53.658 11.236 54.835 12.631 52.137 13.226 53.83 15.309 58.395 18.711 56.242 21.501 58.94 17.614 66.146 20.403 72.146 23.062 78.433 18.377 80.069 12.371 79.294 9.675 84.719 9.396 88.652 7.89 87.906 6.235 87.734 5.026 87.619 2.59 88.05 2.999 89.284 4.394 93.504-1.594 95.944 2.162 100.078-0.422 104.556 3.948 108.432 3.353 113.283 3.278 114.259 3.687 115.092 4.338 115.321 7.22 116.556 3.018 118.967 3.464 121.58 33.029 139.436 65.104 127.091 95.394 135.302 103.259 129.56 97.346 137.34 100.489 136.134 102.943 134.728 104.728 140.555 107.499 137.254 107.927 136.306 107.276 134.067 108.8 134.498 109.6 134.728 110.307 134.67 110.418 133.35 110.586 131.369 109.117 132.603 108.726 131.57 112.947 126.345 111.906 138.775 115.866 138.259 115.68 136.737 114.528 134.555 116.889 134.842 119.232 132.661 119.306 130.852 121.389 135.761 121.463 136.823 121.835 137.57 122.43 138.086 128.938 132.747 135.409 139.981 142.233 137.57 146.417 134.929 150.433 139.005 154.672 138 156.16 137.196 157.666 135.761 159.098 138.172 176.632 138.689 195.319 136.536 211.943 138.259 256.364 135.043 303.836 139.579 350.674 135.33 361.719 133.694 373.192 131.369 383.958 129.503 383.958 129.503 392.679 124.393 392.679 101.427S394.538 81.332 394.817 63.045C395.096 44.759 396.398 44.013 394.538 29.659Z" opacity="1" fill="#3a3d53" data-fill-palette-color="tertiary"></path><g transform="matrix(1,0,0,1,55.76832,26.230666666666668)"><svg width="283.98335999999995" viewBox="2.45 -37 165.6025 50.05" height="85.82087451745997" data-palette-color="#ffffff"><path d="M15.1 0Q11.2 0 8.35-1.6 5.5-3.2 3.98-5.95 2.45-8.7 2.45-12.15L2.45-12.15Q2.45-15.75 4.03-18.88 5.6-22 8.53-23.85 11.45-25.7 15.35-25.7L15.35-25.7Q19.55-25.7 22.45-23.68 25.35-21.65 26.5-18.7L26.5-18.7Q26.8-18.1 26.8-17.55L26.8-17.55Q26.8-16.4 25.2-15.95L25.2-15.95Q24.6-15.85 24.45-15.85L24.45-15.85Q23.7-15.85 23.2-16.28 22.7-16.7 22.25-17.55L22.25-17.55Q21.45-19.3 19.75-20.53 18.05-21.75 15.65-21.75L15.65-21.75Q13.2-21.75 11.33-20.45 9.45-19.15 8.43-16.95 7.4-14.75 7.4-12.2L7.4-12.2Q7.4-8.55 9.47-6.25 11.55-3.95 15.4-3.95L15.4-3.95Q17.85-3.95 19.55-4.9 21.25-5.85 22.08-7.3 22.9-8.75 23-10.25L23-10.25Q23-10.9 23.53-11.33 24.05-11.75 25-11.75L25-11.75Q26.2-11.75 26.83-11.28 27.45-10.8 27.45-9.6L27.45-9.6Q27.4-7.3 26.03-5.1 24.65-2.9 21.9-1.45 19.15 0 15.1 0L15.1 0ZM56.3-4Q57.05-3.9 57.47-3.5 57.9-3.1 57.9-2.15L57.9-2.15Q57.9-1.25 57.45-0.65 57-0.05 56.2-0.05L56.2-0.05Q54.15-0.05 53.12-0.65 52.1-1.25 51.25-2.9L51.25-2.9Q49.15 0.5 43.45 0.5L43.45 0.5Q37.65 0.5 34.9-3.03 32.15-6.55 32.15-11.8L32.15-11.8Q32.15-15.3 33.55-18.25 34.95-21.2 37.65-22.95 40.35-24.7 43.95-24.7L43.95-24.7Q46.25-24.7 48.02-23.8 49.8-22.9 50.7-21.35L50.7-21.35 50.85-22.6Q51.05-24.4 53-24.4L53-24.4Q54.3-24.4 54.85-23.83 55.4-23.25 55.3-22.4L55.3-22.4Q54.8-18.65 54.7-16.75L54.7-16.75Q54.55-14.95 54.55-12.05L54.55-12.05 54.55-8.75Q54.55-6.15 54.82-5.15 55.1-4.15 56.3-4L56.3-4ZM49.65-8.75Q49.7-11 49.7-14.9L49.7-14.9Q49.7-16.95 48.82-18.25 47.95-19.55 46.67-20.15 45.4-20.75 44.1-20.75L44.1-20.75Q41.85-20.75 40.27-19.43 38.7-18.1 37.92-16.05 37.15-14 37.15-11.8L37.15-11.8Q37.15-8.45 38.72-5.98 40.3-3.5 43.65-3.5L43.65-3.5Q46.3-3.5 47.95-4.85 49.6-6.2 49.65-8.75L49.65-8.75ZM76.34-25.8Q79.55-25.8 81.45-23.75 83.34-21.7 83.34-18.65L83.34-18.65Q83.34-15.75 81.55-14.1 79.75-12.45 76.9-12.45L76.9-12.45Q75.65-12.45 75.12-12.83 74.59-13.2 74.59-14.15L74.59-14.15Q74.59-15 74.97-15.38 75.34-15.75 76.09-15.8L76.09-15.8Q79.25-16.05 79.25-18.75L79.25-18.75Q79.25-20.05 78.52-20.95 77.8-21.85 76.3-21.85L76.3-21.85Q74.55-21.85 73.17-20.2 71.8-18.55 70.97-16.2 70.15-13.85 70-11.75L70-11.75Q69.64-8 69.64-3.35L69.64-3.35Q69.64-1.1 69.14-0.35 68.64 0.4 67.25 0.4L67.25 0.4Q65.89 0.4 65.32-0.18 64.75-0.75 64.75-2.1L64.75-2.1Q64.7-3.05 64.7-11.15L64.7-11.15Q64.7-15.2 64.14-20.5L64.14-20.5 63.84-24.35Q63.8-25.3 64.42-25.85 65.05-26.4 66.2-26.4L66.2-26.4Q68.2-26.4 68.3-24.6L68.3-24.6 68.64-19.5Q69.55-22.35 71.55-24.08 73.55-25.8 76.34-25.8L76.34-25.8ZM103.64-8.75Q104.79-8.75 105.29-8.25 105.79-7.75 105.79-6.55L105.79-6.55Q105.79-3.7 103.94-1.83 102.09 0.05 99.24 0.05L99.24 0.05Q95.29 0.05 93.54-3.33 91.79-6.7 91.79-13.9L91.79-13.9Q91.79-16.45 91.94-19L91.94-19 89.54-19.15Q87.59-19.25 87.59-21.2L87.59-21.2Q87.59-22.2 88.12-22.68 88.64-23.15 89.84-23.1L89.84-23.1 92.29-22.95Q92.59-26.1 93.44-31.7L93.44-31.7Q93.74-33.5 95.89-33.5L95.89-33.5Q97.14-33.5 97.82-32.85 98.49-32.2 98.39-31.3L98.39-31.3Q97.69-26.95 97.19-22.7L97.19-22.7Q99.89-22.6 100.74-22.6L100.74-22.6Q101.69-22.6 102.14-22.18 102.59-21.75 102.59-20.85L102.59-20.85Q102.59-19.75 102.12-19.33 101.64-18.9 100.39-18.85L100.39-18.85 96.84-18.85Q96.69-16.45 96.69-13.9L96.69-13.9Q96.69-8.85 97.34-6.43 97.99-4 99.64-4L99.64-4Q101.54-4 101.69-6.95L101.69-6.95Q101.69-7.85 102.12-8.3 102.54-8.75 103.64-8.75L103.64-8.75ZM116.39-27.55Q114.84-27.55 113.84-28.58 112.84-29.6 112.84-31.15L112.84-31.15Q112.84-32.65 113.87-33.65 114.89-34.65 116.49-34.65L116.49-34.65Q118.09-34.65 119.07-33.7 120.04-32.75 120.04-31.2L120.04-31.2Q120.04-29.65 119.02-28.6 117.99-27.55 116.39-27.55L116.39-27.55ZM115.69-0.3Q114.54-0.3 113.84-0.85 113.14-1.4 113.14-2.4L113.14-2.4 113.64-22.7Q113.64-23.7 114.34-24.28 115.04-24.85 116.14-24.85L116.14-24.85Q117.24-24.85 117.97-24.25 118.69-23.65 118.69-22.65L118.69-22.65 118.19-2.35Q118.14-1.35 117.47-0.83 116.79-0.3 115.69-0.3L115.69-0.3ZM137.24-37Q140.74-37 142.66-35.02 144.59-33.05 144.59-29.15L144.59-29.15Q144.59-27.9 144.01-27.28 143.44-26.65 142.19-26.65L142.19-26.65Q139.79-26.65 139.69-28.8L139.69-28.8Q139.64-30.75 139.19-31.83 138.74-32.9 137.19-32.9L137.19-32.9Q135.49-32.9 134.86-31.38 134.24-29.85 134.24-26.4L134.24-26.4 134.24-20.65 137.79-20.65Q138.69-20.65 139.14-20.13 139.59-19.6 139.59-18.65L139.59-18.65Q139.59-16.85 137.74-16.8L137.74-16.8Q136.34-16.75 134.29-16.75L134.29-16.75 134.44-2.1Q134.49-1.05 133.81-0.53 133.14 0 132.04 0L132.04 0Q130.89 0 130.26-0.58 129.64-1.15 129.64-2.05L129.64-2.05Q129.59-7.4 129.39-16.65L129.39-16.65Q128.74-16.6 126.99-16.6L126.99-16.6Q125.84-16.6 125.34-17.1 124.84-17.6 124.84-18.6L124.84-18.6Q124.84-19.5 125.26-20 125.69-20.5 126.89-20.55L126.89-20.55 129.34-20.55Q129.24-24.95 129.24-26.65L129.24-26.65Q129.24-31.5 131.24-34.25 133.24-37 137.24-37L137.24-37ZM154.94 13.05Q153.84 13.05 153.09 12.38 152.34 11.7 152.34 10.75L152.34 10.75Q152.34 10.3 152.53 9.9L152.53 9.9Q154.84 3.95 156.94-1.95L156.94-1.95Q154.78-3.4 152.56-6.98 150.34-10.55 148.59-14.88 146.84-19.2 145.99-22.75L145.99-22.75Q145.88-23.15 145.88-23.5L145.88-23.5Q145.88-24.35 146.56-24.9 147.24-25.45 148.34-25.45L148.34-25.45Q149.28-25.45 149.71-25.05 150.13-24.65 150.34-23.8L150.34-23.8Q154.63-9.4 158.59-6.75L158.59-6.75Q160.34-12.75 163.24-24.05L163.24-24.05Q163.49-24.9 163.94-25.25 164.38-25.6 165.28-25.6L165.28-25.6Q166.49-25.6 167.21-25.08 167.94-24.55 168.03-23.7L168.03-23.7Q168.09-23.5 167.99-23.15L167.99-23.15Q166.49-17.15 165.28-12.85 164.09-8.55 162.59-4.1L162.59-4.1Q161.44-0.65 159.76 4.15 158.09 8.95 157.09 11.45L157.09 11.45Q156.78 12.25 156.31 12.65 155.84 13.05 154.94 13.05L154.94 13.05Z" opacity="1" transform="matrix(1,0,0,1,0,0)" fill="#ffffff" class="wordmark-text-0" data-fill-palette-color="quaternary" id="text-0"></path></svg></g></svg></g></svg></g></svg></g><g></g></svg></g><defs></defs></svg><rect width="395.52" height="138.2822078507933" fill="none" stroke="none" visibility="hidden"></rect></g></svg></g></svg>