<svg xmlns="http://www.w3.org/2000/svg" version="1.1" xmlns:xlink="http://www.w3.org/1999/xlink" xmlns:svgjs="http://svgjs.dev/svgjs" width="128" height="128" viewBox="0 0 128 128"><g transform="matrix(0.8046875,0,0,0.8046875,12.600194552529175,10.71930443548387)"><svg viewBox="0 0 150 155" data-background-color="#ffffff" preserveAspectRatio="xMidYMid meet" height="132" width="128" xmlns="http://www.w3.org/2000/svg" xmlns:xlink="http://www.w3.org/1999/xlink"><g id="tight-bounds" transform="matrix(1,0,0,1,-0.14591439688715013,0.25)"><svg viewBox="0 0 150.2918287937743 154.5" height="154.5" width="150.2918287937743"><g><svg viewBox="0 0 150.2918287937743 154.5" height="154.5" width="150.2918287937743"><g><svg viewBox="0 0 150.2918287937743 154.5" height="154.5" width="150.2918287937743"><g id="textblocktransform"><svg viewBox="0 0 150.2918287937743 154.5" height="154.5" width="150.2918287937743" id="textblock"><g><svg viewBox="0 0 150.2918287937743 154.5" height="154.5" width="150.2918287937743"><g transform="matrix(1,0,0,1,0,0)"><svg width="150.2918287937743" viewBox="2.45 -25.7 25 25.7" height="154.5" data-palette-color="#2f5651"><path d="M15.1 0Q11.2 0 8.35-1.6 5.5-3.2 3.98-5.95 2.45-8.7 2.45-12.15L2.45-12.15Q2.45-15.75 4.03-18.88 5.6-22 8.53-23.85 11.45-25.7 15.35-25.7L15.35-25.7Q19.55-25.7 22.45-23.68 25.35-21.65 26.5-18.7L26.5-18.7Q26.8-18.1 26.8-17.55L26.8-17.55Q26.8-16.4 25.2-15.95L25.2-15.95Q24.6-15.85 24.45-15.85L24.45-15.85Q23.7-15.85 23.2-16.28 22.7-16.7 22.25-17.55L22.25-17.55Q21.45-19.3 19.75-20.53 18.05-21.75 15.65-21.75L15.65-21.75Q13.2-21.75 11.33-20.45 9.45-19.15 8.43-16.95 7.4-14.75 7.4-12.2L7.4-12.2Q7.4-8.55 9.47-6.25 11.55-3.95 15.4-3.95L15.4-3.95Q17.85-3.95 19.55-4.9 21.25-5.85 22.08-7.3 22.9-8.75 23-10.25L23-10.25Q23-10.9 23.53-11.33 24.05-11.75 25-11.75L25-11.75Q26.2-11.75 26.83-11.28 27.45-10.8 27.45-9.6L27.45-9.6Q27.4-7.3 26.03-5.1 24.65-2.9 21.9-1.45 19.15 0 15.1 0L15.1 0Z" opacity="1" transform="matrix(1,0,0,1,0,0)" fill="#2f5651" class="wordmark-text-0" data-fill-palette-color="primary" id="text-0"></path></svg></g></svg></g></svg></g></svg></g><g></g></svg></g><defs></defs></svg><rect width="150.2918287937743" height="154.5" fill="none" stroke="none" visibility="hidden"></rect></g></svg></g></svg>